<svg xmlns="http://www.w3.org/2000/svg" width="22" height="22" fill="none" viewBox="0 0 22 22"><path fill-rule="evenodd" stroke="#D5D8DD" d="M10.8 20.6C16.2124 20.6 20.6 16.2124 20.6 10.8C20.6 5.38761 16.2124 1 10.8 1C5.38761 1 1 5.38761 1 10.8C1 16.2124 5.38761 20.6 10.8 20.6Z" clip-rule="evenodd"/><path stroke="#A8AEB7" d="M14.9977 6.72266L6.59766 15.1227"/><path stroke="#A8AEB7" d="M6.59766 6.72109L14.9977 15.1211"/><path fill-rule="evenodd" stroke="url(#paint0_linear)" stroke-width="1.5" d="M10.8 20.6C16.2124 20.6 20.6 16.2124 20.6 10.8C20.6 5.38761 16.2124 1 10.8 1C5.38761 1 1 5.38761 1 10.8C1 16.2124 5.38761 20.6 10.8 20.6Z" clip-rule="evenodd"/><defs><linearGradient id="paint0_linear" x1="1" x2="20.6" y1="10.622" y2="10.622" gradientUnits="userSpaceOnUse"><stop stop-color="#2CD2CF"/><stop offset="1" stop-color="#9D4DFA"/></linearGradient></defs></svg>